<svg id="Layer_1" data-name="Layer 1" xmlns="http://www.w3.org/2000/svg" xmlns:xlink="http://www.w3.org/1999/xlink" viewBox="0 0 1530 602"><defs><style>.cls-1{filter:url(#luminosity-noclip);}.cls-2{mask:url(#mask);}.cls-3{fill:#f17d24;}</style><filter id="luminosity-noclip" x="1143.85" y="6.24" width="383.15" height="513.96" filterUnits="userSpaceOnUse" color-interpolation-filters="sRGB"><feFlood flood-color="#fff" result="bg"/><feBlend in="SourceGraphic" in2="bg"/></filter><mask id="mask" x="1143.85" y="6.24" width="383.15" height="513.96" maskUnits="userSpaceOnUse"><polygon class="cls-1" points="1333.07 394.79 1411.53 194.04 1392.07 185.21 1297.75 384.63 1333.07 394.79"/></mask></defs><title>Artboard 1</title><path d="M50.09,380.88Q30.56,371.69,19.86,355T9.15,316.46V306.7a4.51,4.51,0,0,1,4.51-4.51H56.85a4.49,4.49,0,0,1,4.51,4.51v7.13a28.38,28.38,0,0,0,9.77,22q9.77,8.82,26.29,8.82,14.64,0,22.35-7.51t7.7-19.15a23.29,23.29,0,0,0-4.89-14.84,51.89,51.89,0,0,0-13.71-11.64Q100,286,81.64,276.65q-22.53-11.26-36.81-21a90.08,90.08,0,0,1-24.41-25.17q-10.14-15.39-10.14-37.18t10.33-38.12Q30.93,138.8,49.72,130t42.82-8.83q25.15,0,44.69,9.58a73.19,73.19,0,0,1,30.43,26.86q10.89,17.28,10.89,39.81v7.51a4.51,4.51,0,0,1-4.51,4.51H130.85a4.35,4.35,0,0,1-3.2-1.32,4.3,4.3,0,0,1-1.31-3.19v-6.76A29.93,29.93,0,0,0,117,175.62q-9.39-9-25.54-9-13.51,0-21.22,7t-7.7,19.34a25.35,25.35,0,0,0,4.51,15q4.5,6.39,13.89,12.2t28.55,15.22l7.89,4.5q21.77,12,34,20.85A76.29,76.29,0,0,1,171.79,283q8.25,13.51,8.26,32.67,0,34.19-23.1,54.28T95.54,390.08Q69.62,390.08,50.09,380.88Z"/><path d="M233.57,374.12q-20.48-16-25.35-43.76-3-15.39-3-40.56a281.26,281.26,0,0,1,3-39.82q4.88-27,25.54-43t51.83-16q30.42,0,51.27,15.4A64,64,0,0,1,362.59,247a106.52,106.52,0,0,1,1.5,10.89c0,2.76-1.5,4.38-4.51,4.88l-43.19,4.14h-.75q-3.39,0-4.13-4.14a13.11,13.11,0,0,0-.38-3.75c-.5-2-1-3.76-1.5-5.26a24,24,0,0,0-8.64-12.4q-6.39-4.87-15.78-4.88-10.14,0-16.52,6T260.42,259q-2.25,12.39-2.25,31.17,0,20.67,2.63,32.3,1.88,10.15,8.08,16.16t16.33,6q10.89,0,17.47-6a23.72,23.72,0,0,0,7.7-15l.75-4.51a6.09,6.09,0,0,1,1.69-3.19A3.36,3.36,0,0,1,316,315l43.57,3.76q4.13.75,4.13,4.88a61,61,0,0,1-.75,7.51q-3.75,27.42-24.6,43.2t-52.77,15.77Q254,390.08,233.57,374.12Z"/><path d="M529.91,208.48q15.58,17.46,15.59,48.64V382.57a4.49,4.49,0,0,1-4.51,4.51H497.05a4.51,4.51,0,0,1-4.51-4.51V264.63q0-13.14-6.38-20.66t-17.28-7.51q-11.26,0-17.84,7.7T444.46,265V382.57a4.49,4.49,0,0,1-4.5,4.51H396a4.49,4.49,0,0,1-4.5-4.51V128.67a4.47,4.47,0,0,1,4.5-4.51H440a4.47,4.47,0,0,1,4.5,4.51V209c0,.75.25,1.19.76,1.32s1.12-.31,1.87-1.32q13.53-18,39.82-18Q514.32,191,529.91,208.48Z"/><path d="M602,373.74q-20.85-16.33-25-44.88a226.23,226.23,0,0,1-3-38.69,222,222,0,0,1,3-38.68q4.13-27.8,25-44.14T655.55,191q32.3,0,52.77,16.34t25,44.14a222.93,222.93,0,0,1,3,38.68,224.58,224.58,0,0,1-3,38.31q-4.14,28.93-24.6,45.26t-53.15,16.34Q622.88,390.08,602,373.74Zm70.24-35.49q6.94-6.39,9.2-17.28a260.8,260.8,0,0,0,1.88-30.8,245.5,245.5,0,0,0-1.88-30.42q-1.89-10.89-8.83-17.09t-17.46-6.2a24.75,24.75,0,0,0-17.09,6.2q-7,6.19-8.83,17.09-1.89,11.26-1.88,30.42a257.25,257.25,0,0,0,1.5,30.8q2.26,10.9,9.39,17.28a25,25,0,0,0,17.28,6.38A23.84,23.84,0,0,0,672.27,338.25Z"/><path d="M791,373.74q-20.85-16.33-25-44.88a227.25,227.25,0,0,1-3-38.69,223,223,0,0,1,3-38.68q4.14-27.8,25-44.14T844.48,191q32.29,0,52.77,16.34t25,44.14a222,222,0,0,1,3,38.68,223.56,223.56,0,0,1-3,38.31q-4.12,28.93-24.6,45.26t-53.14,16.34Q811.8,390.08,791,373.74Zm70.24-35.49q6.94-6.39,9.2-17.28a260.8,260.8,0,0,0,1.88-30.8,245.5,245.5,0,0,0-1.88-30.42q-1.87-10.89-8.83-17.09t-17.46-6.2a24.75,24.75,0,0,0-17.09,6.2q-7,6.19-8.83,17.09-1.87,11.26-1.87,30.42a255.16,255.16,0,0,0,1.5,30.8q2.25,10.9,9.39,17.28a25,25,0,0,0,17.28,6.38A23.84,23.84,0,0,0,861.19,338.25Z"/><path d="M956.21,385.76a4.3,4.3,0,0,1-1.31-3.19V128.67a4.47,4.47,0,0,1,4.51-4.51h43.94a4.49,4.49,0,0,1,4.51,4.51v253.9a4.51,4.51,0,0,1-4.51,4.51H959.41A4.35,4.35,0,0,1,956.21,385.76Z"/><path d="M1047.29,163.78q-8.26-8.44-8.26-21.22,0-13.14,8.07-21.41t21.22-8.26q13.15,0,21.41,8.26t8.27,21.41q0,12.78-8.45,21.22t-21.23,8.45Q1055.55,172.23,1047.29,163.78Zm-3.94,222a4.31,4.31,0,0,1-1.32-3.19v-184a4.49,4.49,0,0,1,4.51-4.51h44a4.47,4.47,0,0,1,4.5,4.51v184a4.49,4.49,0,0,1-4.5,4.51h-44A4.31,4.31,0,0,1,1043.35,385.76Z"/><g class="cls-2"><polygon class="cls-3" points="1430.28 520.2 1527 501.64 1247.15 31.12 1143.85 6.24 1430.28 520.2"/></g><polygon class="cls-3" points="1213.03 561.9 1033.86 596.29 1388.4 65.14 1457.86 81.87 1213.03 561.9"/></svg>